<?xml version="1.0" standalone="no"?>
<!DOCTYPE svg PUBLIC "-//W3C//DTD SVG 20010904//EN"
 "http://www.w3.org/TR/2001/REC-SVG-20010904/DTD/svg10.dtd">
<svg version="1.0" xmlns="http://www.w3.org/2000/svg"
 width="2592.000000pt" height="2592.000000pt" viewBox="0 0 2592.000000 2592.000000"
 preserveAspectRatio="xMidYMid meet">
<metadata>
Created by potrace 1.14, written by Peter Selinger 2001-2017
</metadata>
<g transform="translate(0.000000,2592.000000) scale(0.100000,-0.100000)"
fill="#000000" stroke="none">
<path d="M7969 16691 c-1 -3 -2 -1636 -3 -3629 l-2 -3623 33 3 c17 1 35 -1 38
-4 4 -4 17 -3 30 2 13 5 26 6 29 3 8 -8 102 -7 115 1 5 4 12 2 16 -3 3 -7 15
-7 30 -1 13 5 27 5 30 1 3 -5 20 -5 39 -1 19 4 37 5 40 3 6 -7 76 -10 76 -3 0
3 18 5 40 5 22 0 40 -3 40 -7 0 -4 14 -3 30 2 17 5 30 6 30 2 0 -8 83 -7 105
2 8 3 17 1 20 -4 3 -6 15 -6 30 0 13 5 27 6 29 1 3 -4 26 -5 51 -1 25 4 45 4
45 1 0 -3 27 -6 60 -6 33 0 60 3 60 7 0 4 14 3 30 -2 19 -5 30 -5 30 1 0 6 5
7 11 3 6 -3 66 -6 132 -5 148 2 134 2 180 -1 20 -2 38 1 38 7 1 5 2 1639 3
3631 l1 3621 -717 0 c-395 0 -719 -3 -719 -6z"/>
<path d="M11069 16406 c-2 -2 -22 -7 -44 -10 -22 -4 -48 -9 -57 -12 -9 -3 -25
-7 -36 -9 -40 -7 -176 -76 -235 -119 -62 -44 -157 -132 -157 -145 0 -4 -9 -13
-20 -21 -11 -8 -20 -18 -20 -23 0 -4 -8 -16 -18 -27 -24 -25 -91 -162 -94
-190 0 -3 -5 -16 -10 -30 -31 -80 -44 -305 -24 -400 3 -14 8 -34 10 -46 9 -43
30 -110 42 -129 7 -11 15 -31 19 -44 4 -14 11 -29 16 -35 5 -6 27 -38 49 -71
61 -92 202 -225 238 -225 7 0 12 -4 12 -9 0 -8 14 -16 113 -60 88 -40 222 -61
354 -57 65 2 128 7 141 10 12 3 31 8 42 11 44 11 56 15 90 27 56 21 133 63
158 86 7 6 17 12 22 12 18 0 176 166 215 225 40 61 102 195 110 237 3 13 7 36
11 51 3 16 8 41 10 55 6 43 5 215 -1 242 -3 14 -8 36 -11 50 -5 27 -22 85 -31
110 -3 8 -7 20 -8 27 -5 20 -75 141 -90 153 -8 7 -15 16 -15 21 0 4 -18 27
-40 49 -22 22 -40 45 -40 50 0 6 -3 10 -7 10 -5 0 -21 12 -38 28 -16 15 -48
40 -70 56 -22 17 -43 35 -47 40 -4 6 -8 7 -8 3 0 -5 -12 1 -26 12 -15 12 -30
21 -35 21 -5 0 -32 11 -61 24 -48 22 -131 43 -150 38 -5 -1 -8 1 -8 6 0 7
-244 15 -251 8z"/>
<path d="M18875 16402 c-3 -3 -18 -7 -35 -9 -37 -4 -143 -38 -190 -61 -211
-104 -378 -295 -444 -507 -24 -79 -28 -103 -31 -230 -3 -121 8 -203 41 -302
19 -57 91 -195 107 -205 7 -4 9 -8 5 -8 -3 0 8 -16 25 -37 106 -122 236 -212
375 -260 123 -41 330 -54 450 -28 82 19 183 54 213 76 15 10 30 19 33 19 16 0
108 73 167 133 62 62 170 211 168 230 0 4 6 18 13 30 28 45 59 171 64 262 2
39 4 72 5 75 1 3 1 9 0 14 -1 4 -4 34 -7 65 -13 141 -57 264 -134 376 -72 105
-294 295 -345 295 -8 0 -15 5 -15 10 0 6 -8 10 -18 10 -10 0 -22 4 -27 8 -6 5
-32 14 -60 20 -27 7 -61 15 -75 19 -32 8 -277 12 -285 5z"/>
<path d="M3235 16206 c-8 -17 -23 -53 -36 -81 -12 -27 -23 -52 -24 -55 -1 -3
-9 -23 -20 -45 -10 -22 -19 -45 -20 -51 -2 -7 -19 -46 -39 -89 -20 -42 -36
-83 -36 -91 0 -8 -4 -14 -8 -14 -5 0 -9 -6 -9 -12 0 -7 -13 -40 -29 -73 -15
-33 -28 -62 -29 -65 0 -3 -11 -27 -23 -54 -12 -27 -22 -50 -22 -52 0 -2 -14
-34 -31 -71 -17 -38 -32 -72 -33 -78 -1 -5 -12 -31 -24 -57 -12 -27 -31 -69
-43 -95 -11 -27 -24 -57 -29 -68 -5 -11 -18 -42 -30 -70 -12 -27 -27 -63 -35
-80 -7 -16 -34 -79 -60 -140 -26 -60 -57 -130 -68 -155 -11 -25 -21 -49 -22
-55 -2 -5 -15 -37 -30 -70 -37 -84 -53 -119 -120 -275 -20 -47 -48 -109 -61
-138 -13 -29 -24 -55 -24 -57 0 -2 -11 -28 -24 -57 -13 -29 -43 -98 -66 -153
-24 -55 -53 -123 -66 -152 -13 -28 -24 -54 -24 -57 0 -2 -14 -35 -31 -73 -42
-93 -46 -103 -134 -308 -43 -99 -85 -196 -93 -215 -9 -19 -16 -37 -17 -40 -3
-10 -23 -56 -50 -115 -16 -33 -28 -66 -28 -72 0 -7 -3 -13 -7 -13 -3 0 -12
-17 -19 -37 -8 -21 -25 -63 -38 -93 -14 -30 -30 -68 -38 -85 -7 -16 -48 -111
-90 -210 -43 -99 -88 -204 -101 -233 -13 -29 -36 -80 -50 -115 -14 -34 -34
-80 -44 -102 -9 -22 -30 -69 -45 -105 -29 -69 -33 -77 -103 -235 -24 -55 -45
-104 -46 -110 -3 -11 -23 -56 -66 -151 -17 -35 -30 -68 -30 -72 0 -4 -9 -24
-20 -45 -11 -20 -19 -38 -19 -39 1 -2 -7 -23 -18 -48 -11 -25 -55 -126 -98
-225 -43 -99 -86 -200 -97 -225 -10 -25 -23 -54 -28 -65 -33 -70 -133 -305
-140 -328 -5 -16 -13 -34 -18 -40 -5 -7 -17 -32 -26 -57 -10 -25 -28 -67 -41
-95 -56 -122 -74 -165 -68 -165 3 0 1 -6 -5 -12 -5 -7 -27 -53 -48 -103 -21
-49 -44 -101 -51 -114 -6 -14 -10 -28 -7 -33 3 -4 0 -8 -5 -8 -6 0 -11 -4 -11
-9 0 -5 -13 -39 -30 -74 -16 -36 -30 -72 -30 -80 0 -9 -3 -17 -8 -19 -4 -1
-15 -23 -24 -47 -17 -42 -17 -43 2 -38 11 3 22 1 25 -4 3 -4 16 -4 29 1 13 5
27 6 30 3 7 -8 91 -7 103 0 5 3 15 2 23 -3 7 -4 24 -4 36 0 13 5 26 5 29 1 3
-5 20 -5 39 -1 19 4 37 5 40 3 6 -7 76 -10 76 -3 0 3 18 5 40 5 22 0 40 -3 40
-7 0 -4 14 -3 30 2 17 5 30 6 30 2 0 -8 83 -7 105 2 8 3 17 1 20 -4 3 -6 15
-6 30 0 13 5 27 6 29 1 3 -4 26 -5 51 -1 25 4 45 4 45 1 0 -7 97 -4 117 4 7 2
15 0 18 -5 3 -6 15 -6 29 0 13 5 27 6 30 3 8 -8 102 -7 115 1 5 4 12 2 16 -3
3 -7 15 -7 30 -1 13 5 27 5 30 1 3 -5 20 -5 39 -1 19 4 37 5 40 3 8 -8 76 -9
76 -1 0 3 13 3 30 -2 17 -5 32 -5 35 0 3 5 16 5 30 0 15 -6 27 -6 30 0 3 5 16
6 28 2 12 -5 37 -6 56 -3 33 6 34 8 101 176 37 94 71 179 75 190 5 11 9 22 10
25 6 17 18 48 26 65 9 22 26 66 28 77 1 4 13 33 26 63 14 31 25 62 25 70 0 8
4 15 8 15 5 0 9 6 9 13 0 6 46 126 102 266 55 139 101 260 101 267 0 8 5 14
12 14 6 0 9 3 6 6 -6 5 0 22 37 109 7 17 17 42 23 56 11 27 50 42 73 28 7 -4
20 -4 29 1 9 5 22 5 30 0 8 -5 21 -5 30 0 9 5 22 5 30 0 8 -5 21 -5 30 0 9 5
22 5 30 0 8 -5 21 -5 31 0 9 5 19 7 22 3 8 -7 95 -8 103 0 3 3 17 2 30 -3 14
-6 26 -6 29 1 4 5 13 6 22 0 9 -4 31 -5 49 -1 19 4 34 5 34 1 0 -6 122 -4 153
3 9 2 17 0 17 -4 0 -5 14 -5 30 0 17 5 30 6 30 2 0 -4 43 -7 95 -7 52 0 95 3
95 7 0 4 14 3 30 -2 17 -5 30 -5 30 0 0 5 13 5 30 0 17 -5 30 -5 30 0 0 5 13
5 30 0 17 -5 32 -5 35 0 3 5 16 5 30 0 15 -6 27 -6 30 1 4 5 11 7 16 3 13 -8
107 -9 115 -1 3 3 17 2 30 -3 14 -6 26 -6 29 1 4 5 13 6 22 0 9 -4 31 -5 49
-1 19 4 34 5 34 1 0 -6 27 -6 117 0 23 2 45 0 49 -4 4 -3 14 -2 23 3 10 5 23
5 31 0 8 -5 21 -5 30 0 9 5 22 5 30 0 8 -5 21 -5 30 0 9 5 22 5 30 0 8 -5 21
-5 30 0 9 5 22 5 30 0 8 -5 22 -4 32 1 10 5 18 6 18 2 0 -4 56 -8 125 -8 69 0
125 4 125 8 0 5 5 5 11 1 13 -8 223 -9 236 -1 5 3 15 2 23 -3 7 -4 23 -4 36 0
12 5 25 6 28 3 3 -4 25 -7 48 -7 24 -1 43 -5 44 -11 1 -10 4 -18 43 -107 11
-27 18 -48 14 -48 -3 0 -1 -6 5 -12 5 -7 29 -60 52 -118 23 -58 45 -114 50
-125 20 -49 42 -102 50 -120 5 -11 23 -56 41 -100 17 -44 37 -93 44 -110 13
-30 21 -52 25 -70 1 -5 8 -21 15 -35 18 -35 49 -108 60 -140 1 -3 5 -14 10
-25 41 -97 68 -165 77 -190 5 -16 18 -48 28 -70 10 -22 26 -62 36 -89 23 -64
38 -78 69 -66 15 6 27 6 30 0 3 -6 15 -6 30 0 13 5 27 6 29 1 3 -4 26 -5 51
-1 25 4 45 4 45 1 0 -3 27 -6 60 -6 33 0 60 3 60 7 0 4 14 3 30 -2 19 -5 30
-5 30 1 0 6 5 7 11 3 14 -8 265 -7 279 1 6 3 10 2 10 -4 0 -6 11 -6 30 -1 16
5 30 6 30 2 0 -8 68 -8 76 1 3 3 19 1 35 -3 16 -5 29 -5 29 0 0 4 12 5 28 1
15 -4 42 -4 60 0 17 4 32 3 32 -1 0 -5 13 -5 30 0 16 5 30 6 30 2 0 -8 68 -8
76 1 3 3 19 1 35 -3 16 -5 29 -5 29 0 0 4 12 5 28 1 15 -4 42 -4 60 0 17 4 32
3 32 -1 0 -5 13 -5 30 0 16 5 30 6 30 2 0 -8 68 -8 76 1 3 3 19 1 35 -3 16 -5
29 -5 29 0 0 5 12 5 28 1 15 -4 38 -5 52 -1 14 4 30 3 37 -2 20 -15 24 8 8 46
-9 21 -29 66 -45 102 -17 35 -30 67 -30 69 0 3 -13 32 -29 65 -16 33 -27 60
-24 60 3 0 -1 10 -9 23 -8 12 -23 45 -33 72 -10 28 -22 55 -26 60 -4 6 -26 55
-49 110 -23 55 -52 123 -65 150 -12 28 -32 71 -44 97 -11 26 -21 50 -21 53 0
2 -12 30 -26 62 -23 50 -57 128 -110 250 -8 18 -14 35 -14 38 1 3 -6 18 -14
33 -19 35 -117 254 -120 267 -1 6 -14 36 -29 69 -15 32 -27 60 -27 62 0 2 -14
34 -31 71 -17 38 -32 73 -33 78 -1 6 -19 45 -39 88 -20 44 -37 81 -37 83 0 2
-10 26 -21 52 -12 26 -27 61 -34 77 -7 17 -25 56 -39 88 -14 31 -37 84 -51
117 -39 92 -75 173 -85 192 -6 10 -10 25 -10 33 0 8 -4 15 -10 15 -5 0 -9 3
-8 8 2 9 -16 52 -78 190 -13 29 -24 55 -24 57 0 4 -13 34 -76 173 -15 31 -27
62 -28 67 -1 6 -4 15 -8 20 -3 6 -34 75 -68 155 -34 80 -66 149 -71 155 -5 5
-9 15 -9 22 0 6 -13 40 -29 75 -61 134 -81 179 -81 184 0 3 -11 29 -24 57 -62
136 -87 194 -91 207 -1 3 -10 23 -20 45 -10 22 -19 42 -20 45 -4 13 -28 68
-40 95 -60 131 -102 234 -97 239 3 3 0 6 -6 6 -7 0 -12 5 -12 10 0 6 -9 29
-19 53 -26 56 -51 117 -49 120 1 1 -5 16 -14 32 -23 44 -68 141 -68 148 0 4
-16 42 -36 84 -20 43 -47 105 -61 138 -13 33 -33 77 -44 98 -10 20 -17 37 -14
37 3 0 -4 17 -14 38 -20 39 -31 63 -106 237 -26 61 -56 130 -67 155 -96 216
-168 386 -168 398 0 7 -4 12 -10 12 -5 0 -10 9 -10 19 0 11 -4 22 -9 26 -5 3
-15 22 -21 41 -7 20 -26 66 -42 103 -17 36 -29 66 -28 66 2 0 -3 11 -10 25 -8
14 -13 28 -12 33 1 4 -3 7 -8 7 -6 0 -10 8 -10 18 0 10 -3 22 -7 26 -5 4 -8
11 -9 14 0 4 -15 38 -32 76 -18 38 -32 70 -32 72 0 2 -11 27 -24 56 -13 29
-43 98 -66 153 -24 55 -47 105 -52 110 -6 6 -228 10 -625 11 l-616 0 -12 -30z
m634 -2063 c23 -60 46 -116 51 -125 5 -10 20 -46 31 -80 12 -35 31 -83 42
-108 11 -25 21 -47 22 -50 1 -3 5 -14 9 -25 5 -11 15 -38 23 -60 8 -22 21 -53
28 -70 7 -16 36 -91 65 -165 60 -155 63 -163 83 -210 9 -19 23 -55 32 -80 9
-25 21 -54 25 -65 5 -11 21 -51 36 -90 14 -38 32 -83 40 -100 7 -16 29 -73 49
-125 20 -52 42 -106 48 -120 5 -14 11 -27 12 -30 1 -3 7 -18 14 -35 7 -16 14
-34 15 -40 2 -5 8 -21 13 -35 6 -14 20 -47 30 -75 11 -27 23 -59 28 -70 4 -11
9 -25 10 -30 2 -6 11 -31 22 -55 20 -45 35 -85 33 -85 -1 0 6 -13 14 -30 14
-26 14 -31 1 -35 -27 -10 -1640 -4 -1640 6 0 8 62 173 91 239 7 17 28 71 47
120 19 50 38 99 42 110 5 11 9 22 10 25 1 3 5 14 10 25 4 11 21 54 37 95 16
41 33 84 37 95 5 11 19 45 30 75 11 30 37 96 57 145 20 50 37 95 39 100 1 6 7
21 13 35 5 14 26 68 46 120 20 52 40 104 45 115 20 46 36 90 33 98 -1 4 2 7 8
7 5 0 10 10 10 23 0 13 4 27 9 33 11 11 81 187 81 203 0 6 4 19 10 29 12 22
28 62 75 182 20 52 43 109 51 127 8 17 14 33 14 36 0 10 19 57 24 57 2 0 22
-48 45 -107z"/>
<path d="M22980 14216 c-3 -2 -45 -7 -95 -10 -49 -3 -101 -8 -115 -10 -14 -3
-41 -7 -60 -10 -19 -3 -46 -8 -60 -10 -14 -3 -41 -7 -60 -10 -72 -11 -249 -58
-360 -95 -139 -47 -175 -62 -305 -125 -55 -27 -103 -49 -107 -48 -5 1 -8 -2
-8 -7 0 -5 -12 -13 -27 -19 -36 -12 -230 -143 -324 -218 -74 -58 -319 -296
-319 -308 0 -4 -12 -19 -26 -34 -14 -15 -39 -47 -57 -72 -17 -25 -33 -47 -36
-50 -9 -8 -75 -109 -113 -175 -30 -50 -129 -248 -133 -265 -1 -3 -6 -16 -12
-30 -6 -14 -21 -54 -33 -90 -13 -36 -27 -70 -32 -76 -4 -6 -5 -14 -2 -17 3 -3
2 -12 -2 -19 -5 -7 -9 -17 -10 -23 -1 -5 -11 -46 -23 -90 -11 -44 -23 -93 -26
-110 -2 -16 -7 -41 -10 -55 -6 -28 -11 -67 -21 -155 -3 -33 -8 -73 -10 -90 -5
-45 -5 -385 0 -425 2 -19 7 -66 10 -103 3 -38 11 -97 17 -130 6 -34 13 -71 15
-82 3 -17 21 -102 28 -130 3 -12 35 -126 40 -140 2 -5 5 -14 6 -20 2 -10 34
-93 49 -130 101 -244 275 -526 426 -691 164 -180 348 -330 547 -445 131 -75
433 -212 493 -223 6 -1 15 -4 20 -8 6 -3 26 -9 45 -13 19 -4 40 -10 45 -13 6
-4 15 -7 20 -8 6 -1 30 -7 55 -14 25 -7 54 -14 65 -16 11 -2 43 -8 70 -14 28
-6 64 -13 80 -15 17 -3 41 -7 55 -10 14 -3 45 -8 70 -11 25 -3 56 -7 70 -10
131 -22 601 -22 715 0 11 2 45 7 75 10 55 6 84 11 130 21 14 3 36 8 50 10 50
9 130 28 193 48 26 8 51 16 55 16 65 12 297 103 434 171 110 54 112 56 201
113 32 20 61 37 64 37 3 0 19 11 37 25 41 33 45 36 86 65 131 92 318 281 438
443 29 40 60 80 68 90 8 9 14 20 14 23 0 2 16 28 35 57 19 28 35 57 35 64 0 6
4 13 8 15 10 4 82 144 121 238 18 41 36 84 41 95 13 31 59 178 63 200 1 11 5
25 8 30 6 9 21 76 24 100 1 6 5 28 9 50 5 22 10 49 12 60 1 11 5 36 8 55 4 19
9 58 12 85 8 61 8 543 1 605 -7 60 -18 140 -23 165 -2 11 -7 34 -10 50 -23
133 -92 357 -145 471 -16 36 -31 71 -32 77 -1 7 -4 14 -8 17 -3 3 -13 21 -22
40 -55 112 -155 270 -244 384 -56 72 -358 376 -373 376 -5 0 -16 7 -25 16 -25
25 -134 104 -144 104 -5 0 -14 7 -21 16 -28 33 -305 179 -437 230 -113 43
-233 83 -233 77 0 -3 -6 -1 -12 4 -12 9 -147 46 -208 57 -14 2 -36 7 -50 10
-14 3 -36 8 -50 10 -14 2 -41 7 -60 10 -19 3 -55 8 -80 12 -25 3 -61 7 -80 10
-47 7 -515 16 -520 10z m351 -1270 c72 -6 203 -30 239 -43 8 -3 20 -7 27 -9
116 -24 289 -130 406 -248 169 -171 273 -385 313 -646 8 -58 10 -392 1 -445
-24 -155 -65 -282 -129 -404 -49 -92 -56 -104 -90 -142 -10 -10 -18 -22 -18
-25 0 -7 -143 -149 -180 -179 -80 -64 -263 -151 -355 -169 -11 -2 -40 -9 -65
-14 -140 -32 -437 -36 -570 -7 -14 3 -34 7 -45 9 -78 15 -163 44 -244 83 -86
41 -109 55 -175 103 -47 34 -175 169 -213 225 -41 61 -122 217 -126 245 -2 8
-5 20 -8 25 -4 6 -10 24 -14 40 -5 17 -9 35 -11 40 -10 34 -34 163 -33 173 1
4 0 9 -1 12 -9 24 -14 316 -6 370 2 14 7 45 10 70 4 25 9 52 11 60 2 8 7 31
10 49 29 169 156 406 285 531 95 92 218 179 243 172 4 -1 7 3 7 8 0 6 6 10 13
10 6 0 25 7 41 15 23 12 109 41 149 51 4 1 8 2 10 4 11 9 149 31 232 37 44 3
81 6 82 7 3 3 130 -2 204 -8z"/>
<path d="M10457 14095 c-2 -9 -1 -4607 2 -4644 1 -8 8 -11 21 -8 11 3 20 2 20
-1 0 -8 84 -7 105 2 8 3 17 1 20 -4 3 -6 15 -6 30 0 13 5 27 6 29 1 3 -4 26
-5 51 -1 25 4 45 4 45 1 0 -7 97 -4 117 4 7 2 15 0 18 -5 3 -6 15 -6 29 0 13
5 27 6 30 3 8 -8 102 -7 115 1 5 4 12 2 16 -3 3 -7 15 -7 30 -1 13 5 27 5 30
1 3 -5 20 -5 39 -1 19 4 37 5 40 3 7 -8 76 -9 76 -2 0 4 16 3 35 -1 19 -4 35
-4 35 1 0 5 11 4 25 -1 15 -6 27 -6 30 0 3 6 15 6 29 0 13 -5 26 -7 28 -5 5 6
53 7 101 3 20 -2 37 -1 37 2 0 3 18 5 40 5 22 0 40 -3 40 -7 0 -4 14 -3 30 2
17 5 30 6 30 2 0 -8 85 -6 105 1 9 4 11 530 11 2334 l-1 2328 -717 0 c-480 0
-719 -3 -721 -10z"/>
<path d="M12450 14093 c0 -7 4 -21 9 -31 23 -42 51 -113 51 -127 0 -8 5 -15
11 -15 5 0 8 -4 5 -8 -3 -5 1 -19 8 -33 6 -13 20 -44 30 -69 10 -25 23 -58 31
-75 27 -64 65 -155 110 -265 26 -63 51 -124 56 -135 18 -40 100 -240 103 -250
1 -5 12 -32 24 -59 12 -27 22 -50 22 -51 0 -1 7 -19 15 -39 8 -20 15 -38 15
-41 0 -3 6 -19 15 -35 8 -16 30 -67 49 -112 80 -196 227 -555 236 -573 5 -11
21 -49 36 -85 23 -59 39 -95 65 -155 11 -25 240 -583 284 -690 57 -141 86
-209 95 -230 5 -11 21 -49 36 -85 14 -36 32 -78 39 -95 8 -16 35 -82 60 -145
44 -109 81 -196 111 -267 8 -17 14 -34 14 -38 0 -3 10 -27 22 -53 12 -26 23
-49 23 -52 2 -7 15 -37 45 -110 15 -36 47 -112 70 -170 23 -58 48 -118 55
-135 8 -16 37 -86 65 -155 28 -69 55 -134 60 -145 5 -11 19 -43 30 -71 23 -55
46 -68 88 -53 12 5 24 4 27 -1 3 -6 15 -6 30 0 13 5 27 6 29 1 3 -4 26 -5 51
-1 25 4 45 4 45 1 0 -7 97 -4 117 4 7 2 15 0 18 -5 3 -6 15 -6 29 0 13 5 27 6
30 3 8 -8 102 -7 115 1 5 4 12 2 16 -3 3 -7 15 -7 30 -1 13 5 27 5 30 1 3 -5
20 -5 39 -1 19 4 37 5 40 3 6 -7 76 -10 76 -3 0 3 18 5 40 5 22 0 40 -3 40 -7
0 -4 14 -3 30 2 17 5 30 6 30 2 0 -8 83 -7 105 2 8 3 17 1 20 -4 3 -6 15 -6
30 0 13 5 27 6 29 1 3 -4 26 -5 51 -1 25 4 45 4 45 1 0 -7 97 -4 117 4 7 2 15
0 18 -5 3 -6 15 -6 29 0 13 5 27 6 30 3 10 -11 106 -5 120 6 7 6 21 33 31 59
18 47 30 77 58 142 8 19 18 46 22 59 4 13 14 40 23 60 9 20 16 38 17 41 1 3 5
14 10 25 4 11 17 43 27 70 10 28 23 59 28 70 5 11 51 126 101 255 50 129 98
247 105 262 8 15 14 30 14 33 0 3 1 7 1 10 1 3 2 8 3 13 1 4 10 22 19 39 10
18 17 34 17 35 -1 3 7 29 17 56 3 9 7 19 8 22 1 3 7 16 12 30 6 14 32 79 57
145 26 66 53 134 61 150 7 17 75 188 150 380 75 193 140 359 145 370 10 21 65
162 175 440 37 94 73 184 81 202 8 17 14 36 14 42 0 6 4 19 10 29 10 20 32 71
50 122 7 19 24 59 37 88 12 29 23 55 23 58 0 7 59 158 104 269 10 22 21 48 26
57 6 10 10 23 10 29 0 6 6 25 14 42 8 18 49 120 91 227 42 107 84 213 93 235
9 21 17 42 18 45 1 6 3 11 52 130 19 47 35 90 37 95 1 6 7 21 12 35 19 45 73
180 73 183 0 1 -324 2 -720 2 -496 0 -722 -3 -730 -11 -6 -6 -12 -19 -14 -30
-3 -10 -25 -76 -49 -146 -25 -71 -43 -128 -41 -128 3 0 -4 -12 -13 -27 -10
-15 -17 -29 -15 -30 5 -5 -49 -166 -61 -180 -5 -7 -7 -13 -4 -13 4 0 -4 -28
-17 -62 -13 -35 -47 -133 -76 -218 -28 -85 -55 -164 -60 -175 -12 -27 -61
-166 -65 -185 -2 -8 -31 -94 -65 -190 -34 -96 -73 -209 -86 -250 -14 -41 -29
-84 -34 -95 -7 -16 -40 -115 -45 -135 -1 -3 -7 -18 -14 -35 -7 -16 -14 -37
-16 -45 -2 -8 -15 -49 -30 -90 -15 -41 -28 -79 -29 -85 -2 -5 -6 -17 -9 -25
-3 -8 -16 -44 -27 -80 -12 -36 -25 -74 -30 -85 -13 -31 -42 -114 -44 -128 -2
-6 -8 -25 -14 -40 -7 -16 -12 -34 -12 -41 0 -7 -3 -16 -7 -20 -5 -4 -8 -11 -8
-14 -1 -11 -15 -55 -25 -77 -8 -19 -43 -125 -45 -135 0 -3 -6 -15 -13 -27 -7
-13 -10 -23 -7 -23 3 0 1 -9 -5 -21 -6 -11 -13 -28 -15 -37 -7 -30 -93 -274
-99 -280 -13 -12 -28 23 -108 238 -11 30 -25 69 -31 85 -7 17 -12 32 -12 35
-1 3 -9 22 -18 44 -9 21 -17 42 -17 46 0 4 -8 25 -17 46 -9 22 -18 44 -19 49
-3 11 -48 132 -84 225 -11 30 -32 84 -45 120 -13 36 -37 101 -53 145 -17 44
-44 117 -60 161 -17 45 -35 91 -41 103 -7 11 -9 21 -5 21 3 0 2 6 -3 13 -6 6
-16 30 -22 52 -7 22 -16 49 -21 60 -32 78 -53 131 -55 140 -2 12 -6 23 -45
125 -16 41 -38 102 -50 135 -23 65 -37 100 -51 127 -5 10 -9 25 -9 33 0 8 -4
23 -9 33 -9 16 -48 117 -93 242 -11 30 -24 64 -28 75 -5 11 -18 47 -30 80 -11
33 -25 69 -30 80 -5 11 -32 83 -60 160 -28 77 -55 151 -61 165 -6 13 -20 51
-31 85 -11 33 -24 64 -29 69 -5 6 -9 20 -9 32 0 13 -4 26 -10 29 -5 3 -10 14
-10 23 -1 9 -9 33 -18 52 l-17 35 -773 0 c-624 0 -772 -2 -772 -12z"/>
<path d="M18289 14090 c-1 -8 -2 -1056 -3 -2327 l-1 -2313 27 -9 c16 -6 30 -6
33 -1 3 5 15 6 29 0 12 -4 29 -4 36 0 8 5 21 5 30 0 9 -5 22 -5 30 0 7 4 22 5
33 1 10 -4 41 -4 68 -1 27 4 49 3 49 -1 0 -4 14 -4 30 1 17 5 30 6 30 2 0 -8
68 -8 76 1 3 3 19 1 35 -3 16 -5 29 -5 29 0 0 4 12 5 28 1 15 -4 42 -4 60 0
17 4 32 3 32 -1 0 -5 14 -5 30 0 17 5 30 6 30 2 0 -8 68 -8 76 1 3 3 19 1 35
-3 16 -5 29 -5 29 0 0 7 47 -1 63 -10 1 -1 14 3 29 9 17 6 30 7 33 1 3 -6 15
-6 30 0 13 5 27 6 29 1 3 -4 26 -5 51 -1 25 4 45 4 45 1 0 -8 108 -6 116 2 3
3 17 2 30 -3 14 -6 26 -6 29 1 4 5 11 6 17 3 16 -10 101 -5 108 6 3 5 5 1054
5 2332 l0 2323 -717 0 c-636 0 -718 -1 -719 -15z"/>
</g>
</svg>
