<svg width="82" height="82" viewBox="0 0 82 82" fill="none" xmlns="http://www.w3.org/2000/svg">
<g clip-path="url(#clip0_11242_7)">
<path d="M41.3715 0.528015C19.0808 0.528015 0.948334 18.3153 0.948334 40.1778C0.948334 62.0404 19.0808 79.8277 41.3715 79.8277C63.6622 79.8277 81.7947 62.0404 81.7947 40.1778C81.7947 18.3153 63.6622 0.528015 41.3715 0.528015ZM41.3715 76.5236C20.9395 76.5236 4.31688 60.219 4.31688 40.1778C4.31688 20.1367 20.9395 3.83212 41.3715 3.83212C61.8036 3.83212 78.4262 20.1367 78.4262 40.1778C78.4262 60.219 61.8036 76.5236 41.3715 76.5236Z" fill="white"/>
<path d="M57.4419 38.7887L33.8618 23.92C33.3453 23.5894 32.6775 23.5716 32.1446 23.8587C31.6017 24.1491 31.2662 24.7042 31.2662 25.3092V55.0465C31.2662 55.6515 31.6017 56.2066 32.1446 56.497C32.3946 56.631 32.6742 56.6987 32.9505 56.6987C33.2663 56.6987 33.5855 56.6115 33.8618 56.4357L57.4419 41.567C57.9223 41.2637 58.215 40.7393 58.215 40.1779C58.215 39.6164 57.9223 39.0921 57.4419 38.7887ZM34.6347 52.0198V28.3359L53.4154 40.1779L34.6347 52.0198Z" fill="white"/>
</g>
<defs>
<clipPath id="clip0_11242_7">
<rect  width="82" height="82" fill="white" transform="translate(0.948334 0.528015)"/>
</clipPath>
</defs>
</svg>
